<mxfile host="Electron" modified="2023-10-05T08:48:39.307Z" agent="Mozilla/5.0 (Macintosh; Intel Mac OS X 10_15_7) AppleWebKit/537.36 (KHTML, like Gecko) draw.io/22.0.2 Chrome/114.0.5735.289 Electron/25.8.4 Safari/537.36" etag="a27CRFOP6QFIIsRguzar" version="22.0.2" type="device">
  <diagram name="Page-1" id="Ir-qYjORI5f7uRp8s1ZX">
    <mxGraphModel dx="849" dy="664" grid="1" gridSize="10" guides="1" tooltips="1" connect="1" arrows="1" fold="1" page="1" pageScale="1" pageWidth="827" pageHeight="1169" math="0" shadow="0">
      <root>
        <mxCell id="0" />
        <mxCell id="1" parent="0" />
        <mxCell id="PcIXvhPExtJtn8P3PVHD-66" value="AWS Fargate" style="fillColor=none;strokeColor=#5A6C86;dashed=1;verticalAlign=top;fontStyle=0;fontColor=#5A6C86;whiteSpace=wrap;html=1;" parent="1" vertex="1">
          <mxGeometry x="274" y="40" width="308.38" height="220" as="geometry" />
        </mxCell>
        <mxCell id="WZLPfKOkmw0nQWj1aQov-15" style="edgeStyle=orthogonalEdgeStyle;rounded=0;orthogonalLoop=1;jettySize=auto;html=1;entryX=0.5;entryY=0;entryDx=0;entryDy=0;entryPerimeter=0;" parent="1" source="WZLPfKOkmw0nQWj1aQov-14" target="PcIXvhPExtJtn8P3PVHD-52" edge="1">
          <mxGeometry relative="1" as="geometry">
            <Array as="points">
              <mxPoint x="552" y="240" />
            </Array>
          </mxGeometry>
        </mxCell>
        <mxCell id="WZLPfKOkmw0nQWj1aQov-23" style="edgeStyle=orthogonalEdgeStyle;rounded=0;orthogonalLoop=1;jettySize=auto;html=1;entryX=0.5;entryY=0;entryDx=0;entryDy=0;" parent="1" source="WZLPfKOkmw0nQWj1aQov-14" target="PcIXvhPExtJtn8P3PVHD-11" edge="1">
          <mxGeometry relative="1" as="geometry" />
        </mxCell>
        <mxCell id="WZLPfKOkmw0nQWj1aQov-24" value="determine user intent&lt;br&gt;determine knowledge source&lt;br&gt;generate answer" style="edgeLabel;html=1;align=left;verticalAlign=middle;resizable=0;points=[];" parent="WZLPfKOkmw0nQWj1aQov-23" vertex="1" connectable="0">
          <mxGeometry x="-0.2342" y="1" relative="1" as="geometry">
            <mxPoint x="-111" y="11" as="offset" />
          </mxGeometry>
        </mxCell>
        <mxCell id="WZLPfKOkmw0nQWj1aQov-27" style="edgeStyle=orthogonalEdgeStyle;rounded=0;orthogonalLoop=1;jettySize=auto;html=1;entryX=0.448;entryY=-0.01;entryDx=0;entryDy=0;entryPerimeter=0;" parent="1" source="WZLPfKOkmw0nQWj1aQov-14" target="PcIXvhPExtJtn8P3PVHD-12" edge="1">
          <mxGeometry relative="1" as="geometry">
            <Array as="points">
              <mxPoint x="740" y="190" />
            </Array>
          </mxGeometry>
        </mxCell>
        <mxCell id="WZLPfKOkmw0nQWj1aQov-28" value="Retrieve context &lt;br&gt;document excerpts &amp;amp; links" style="edgeLabel;html=1;align=center;verticalAlign=middle;resizable=0;points=[];" parent="WZLPfKOkmw0nQWj1aQov-27" vertex="1" connectable="0">
          <mxGeometry x="-0.2798" y="1" relative="1" as="geometry">
            <mxPoint x="18" y="1" as="offset" />
          </mxGeometry>
        </mxCell>
        <mxCell id="WZLPfKOkmw0nQWj1aQov-14" value="Conversation" style="fillColor=none;strokeColor=#5A6C86;dashed=1;verticalAlign=top;fontStyle=0;fontColor=#5A6C86;whiteSpace=wrap;html=1;" parent="1" vertex="1">
          <mxGeometry x="316" y="172" width="220" height="78" as="geometry" />
        </mxCell>
        <mxCell id="PcIXvhPExtJtn8P3PVHD-11" value="Large Language Models (LLMs)" style="fillColor=none;strokeColor=#5A6C86;dashed=1;verticalAlign=top;fontStyle=0;fontColor=#5A6C86;whiteSpace=wrap;html=1;align=center;" parent="1" vertex="1">
          <mxGeometry x="270" y="360" width="310" height="150" as="geometry" />
        </mxCell>
        <mxCell id="PcIXvhPExtJtn8P3PVHD-2" value="AWS Cloud" style="points=[[0,0],[0.25,0],[0.5,0],[0.75,0],[1,0],[1,0.25],[1,0.5],[1,0.75],[1,1],[0.75,1],[0.5,1],[0.25,1],[0,1],[0,0.75],[0,0.5],[0,0.25]];outlineConnect=0;gradientColor=none;html=1;whiteSpace=wrap;fontSize=12;fontStyle=0;container=0;pointerEvents=0;collapsible=0;recursiveResize=0;shape=mxgraph.aws4.group;grIcon=mxgraph.aws4.group_aws_cloud_alt;strokeColor=#232F3E;fillColor=none;verticalAlign=top;align=left;spacingLeft=30;fontColor=#232F3E;dashed=0;" parent="1" vertex="1">
          <mxGeometry x="110" width="750" height="530" as="geometry" />
        </mxCell>
        <mxCell id="WZLPfKOkmw0nQWj1aQov-6" style="edgeStyle=orthogonalEdgeStyle;rounded=0;orthogonalLoop=1;jettySize=auto;html=1;" parent="1" source="PcIXvhPExtJtn8P3PVHD-1" target="PcIXvhPExtJtn8P3PVHD-64" edge="1">
          <mxGeometry relative="1" as="geometry" />
        </mxCell>
        <mxCell id="PcIXvhPExtJtn8P3PVHD-1" value="Users" style="sketch=0;outlineConnect=0;fontColor=#232F3E;gradientColor=none;strokeColor=#232F3E;fillColor=#ffffff;dashed=0;verticalLabelPosition=bottom;verticalAlign=top;align=center;html=1;fontSize=12;fontStyle=0;aspect=fixed;shape=mxgraph.aws4.resourceIcon;resIcon=mxgraph.aws4.users;" parent="1" vertex="1">
          <mxGeometry x="20" y="77" width="60" height="60" as="geometry" />
        </mxCell>
        <mxCell id="PcIXvhPExtJtn8P3PVHD-14" value="Internet or Intranet" style="fillColor=none;strokeColor=#5A6C86;dashed=1;verticalAlign=top;fontStyle=0;fontColor=#5A6C86;whiteSpace=wrap;html=1;" parent="1" vertex="1">
          <mxGeometry x="930" y="280" width="190" height="241" as="geometry" />
        </mxCell>
        <mxCell id="PcIXvhPExtJtn8P3PVHD-16" value="https://myintranet.private&lt;br&gt;https://customer.com" style="rounded=1;whiteSpace=wrap;html=1;" parent="1" vertex="1">
          <mxGeometry x="953.5" y="477" width="145" height="30" as="geometry" />
        </mxCell>
        <mxCell id="PcIXvhPExtJtn8P3PVHD-19" value="Sharepoint" style="rounded=1;whiteSpace=wrap;html=1;" parent="1" vertex="1">
          <mxGeometry x="953.5" y="306" width="145" height="30" as="geometry" />
        </mxCell>
        <mxCell id="PcIXvhPExtJtn8P3PVHD-21" value="Confluence" style="rounded=1;whiteSpace=wrap;html=1;" parent="1" vertex="1">
          <mxGeometry x="953.5" y="346" width="145" height="30" as="geometry" />
        </mxCell>
        <mxCell id="PcIXvhPExtJtn8P3PVHD-22" value="Jira" style="rounded=1;whiteSpace=wrap;html=1;" parent="1" vertex="1">
          <mxGeometry x="953.5" y="386" width="145" height="30" as="geometry" />
        </mxCell>
        <mxCell id="PcIXvhPExtJtn8P3PVHD-23" value="..." style="rounded=1;whiteSpace=wrap;html=1;" parent="1" vertex="1">
          <mxGeometry x="953.5" y="426" width="145" height="30" as="geometry" />
        </mxCell>
        <mxCell id="PcIXvhPExtJtn8P3PVHD-46" style="edgeStyle=orthogonalEdgeStyle;rounded=0;orthogonalLoop=1;jettySize=auto;html=1;entryX=0;entryY=0.5;entryDx=0;entryDy=0;" parent="1" source="PcIXvhPExtJtn8P3PVHD-43" target="PcIXvhPExtJtn8P3PVHD-16" edge="1">
          <mxGeometry relative="1" as="geometry" />
        </mxCell>
        <mxCell id="PcIXvhPExtJtn8P3PVHD-61" style="edgeStyle=orthogonalEdgeStyle;rounded=0;orthogonalLoop=1;jettySize=auto;html=1;entryX=0.005;entryY=0.283;entryDx=0;entryDy=0;entryPerimeter=0;" parent="1" source="PcIXvhPExtJtn8P3PVHD-38" edge="1">
          <mxGeometry relative="1" as="geometry">
            <mxPoint x="931.95" y="340.99299999999994" as="targetPoint" />
          </mxGeometry>
        </mxCell>
        <mxCell id="PcIXvhPExtJtn8P3PVHD-63" value="Chat App" style="html=1;verticalLabelPosition=bottom;align=center;labelBackgroundColor=#ffffff;verticalAlign=top;strokeWidth=2;strokeColor=#0080F0;shadow=0;dashed=0;shape=mxgraph.ios7.icons.messages;" parent="1" vertex="1">
          <mxGeometry x="391.8" y="88.125" width="44.41" height="37.75" as="geometry" />
        </mxCell>
        <mxCell id="WZLPfKOkmw0nQWj1aQov-11" style="edgeStyle=orthogonalEdgeStyle;rounded=0;orthogonalLoop=1;jettySize=auto;html=1;entryX=-0.086;entryY=0.487;entryDx=0;entryDy=0;entryPerimeter=0;" parent="1" source="PcIXvhPExtJtn8P3PVHD-64" target="PcIXvhPExtJtn8P3PVHD-63" edge="1">
          <mxGeometry relative="1" as="geometry" />
        </mxCell>
        <mxCell id="PcIXvhPExtJtn8P3PVHD-64" value="Application Load Balancer" style="sketch=0;outlineConnect=0;fontColor=#232F3E;gradientColor=none;fillColor=#4D27AA;strokeColor=none;dashed=0;verticalLabelPosition=bottom;verticalAlign=top;align=center;html=1;fontSize=12;fontStyle=0;aspect=fixed;pointerEvents=1;shape=mxgraph.aws4.application_load_balancer;" parent="1" vertex="1">
          <mxGeometry x="170" y="83" width="48" height="48" as="geometry" />
        </mxCell>
        <mxCell id="PcIXvhPExtJtn8P3PVHD-12" value="Knowledge Base" style="fillColor=none;strokeColor=#5A6C86;dashed=1;verticalAlign=top;fontStyle=0;fontColor=#5A6C86;whiteSpace=wrap;html=1;" parent="1" vertex="1">
          <mxGeometry x="650" y="280" width="201" height="240" as="geometry" />
        </mxCell>
        <mxCell id="PcIXvhPExtJtn8P3PVHD-17" value="Amazon Kendra" style="sketch=0;points=[[0,0,0],[0.25,0,0],[0.5,0,0],[0.75,0,0],[1,0,0],[0,1,0],[0.25,1,0],[0.5,1,0],[0.75,1,0],[1,1,0],[0,0.25,0],[0,0.5,0],[0,0.75,0],[1,0.25,0],[1,0.5,0],[1,0.75,0]];outlineConnect=0;fontColor=#232F3E;gradientColor=#4AB29A;gradientDirection=north;fillColor=#116D5B;strokeColor=#ffffff;dashed=0;verticalLabelPosition=bottom;verticalAlign=top;align=center;html=1;fontSize=12;fontStyle=0;aspect=fixed;shape=mxgraph.aws4.resourceIcon;resIcon=mxgraph.aws4.kendra;" parent="1" vertex="1">
          <mxGeometry x="691" y="317" width="48" height="48" as="geometry" />
        </mxCell>
        <mxCell id="PcIXvhPExtJtn8P3PVHD-25" value="Amazon OpenSearch" style="shape=image;verticalLabelPosition=bottom;labelBackgroundColor=default;verticalAlign=top;aspect=fixed;imageAspect=0;image=data:image/png,iVBORw0KGgoAAAANSUhEUgAAAHgAAAB6CAYAAAB0rJfZAAAAAXNSR0IArs4c6QAAAIRlWElmTU0AKgAAAAgABQESAAMAAAABAAEAAAEaAAUAAAABAAAASgEbAAUAAAABAAAAUgEoAAMAAAABAAIAAIdpAAQAAAABAAAAWgAAAAAAAACQAAAAAQAAAJAAAAABAAOgAQADAAAAAQABAACgAgAEAAAAAQAAAHigAwAEAAAAAQAAAHoAAAAAYBrnGwAAAAlwSFlzAAAWJQAAFiUBSVIk8AAADvxJREFUeAHtnXf0VcURxwdFERTBioIFsSARsaDGgoIxKmJBUY41OenNFI2JGjUGS4wmpvxhzknx6ElRsaCEWKJRQwyiiAXEiqhgA8ECNiwomc9vGXff8/ee7/K7793y2znnvru37d47353Z2dnZfSKRSs2BLhePXr681F/YyT9ulU7+/aX//AhwySGOAEeAS86Bkn9elOAIcMk5UPLPixIcAS45B0r+eVGCI8Al50DJPy9KcAS45Bwo+edFCY4Al5wDJf+8KMER4JJzoOSfFyU4AlxyDpT887qW/Ptqft6gfUR69615+VMvLH5J5PG7PvW2zG/olAAD7qgfpsP7vIPcKdvgjkhuWC3SyifMM+10p5TgkInPPyLC1ihtOliErSgUAVZw7xmfAK5jigVwp1TRCeAs/K0R4MJDWP8DIsD1+VP4qxHgwkNY/wM6vZFVnz3JrubReRIBToZhzbvz6jyJKromZMkupOX0SCsfe/sowcaJFPd5cp5EgFME1rIC4Lw4T3IPcK+NRI78mcg6Gxv7ku9fny8y4RyRJQuSP1v0J3LfBg/cq2PgAhCVg3w6I+Ue4FVXSweWtPJJ521al0vuVXTIiqk6KJCkbdtDBwb21K0zU+4luDODk8a3R4DT4GKO8yiUik6Lj6j5JKo+rXKzyKfUANMfpd2GkkRtuCfK8VtqgF9QgNk6M5Ua4GYAWzT1njrAeRwyaw9o+sW91QGy9gYi3XqIcPzBeyLvve08XksWiiz/qL0ni3UuVYDzOmRmkPTdVmTr3TVobojIhv1FutTpQyz7QGT+EyLPzRJ5corI6xroXkRKFeC0hrrSygdAuq4usv3+Ijsf4iS2UZC6qkRvur3b9jpO5KUnRe6fKPLUPY3mkI/7UgU4/KQ8DJlt9zmRvb8osmbv8M1c+qMPVRWrGl6sAxHvviXyoUrsat1Euq+tvut+Ij3Xq3ym70CRw04TeWWeyB1/UuPt0crreT1qKsCJ+prqUkwroHytdd3UlOr8ABJ1O+c+kRcf0zb33dqw9OjlpHebPUUG7KqaQCUaWn9zkaN/LvLwbSL/uVRk2fvufF5/mwZwVh8MqIecKtJDJdHojUUi900QeeR2ldRldrb+/p0lrjJQIbr3VBV/mFPzq3d3zw05QASpvkHBfkM1QV6t6zpmRn0G5PHq1nu4sWMDFzV877Uil58oMvNf9cFdZdXaX7T0TZG7rxC57DsOdLsTaT72QifVdi5v+9JIMGr0kB+JGFBvvipy46/UOFJLuJr6bCmy5W4i/QaJrLuJSruqY55Dut/S52hnsSFm3yPypkq/0duva54Xizz7oMh+33RtNs3B2HNFxv8kn5Z2KQAGsBDcV58XuW6cA8vAYT9wmMhuR2oXaYvwrE+vqtzo1cdtVIDhXxaZ+5BqgWsqK8qjdzrj7PAzRdZYy1UQok7+fooz2HyO2acKr6JX76Hg/thJE+wkPOfqsyrBxaFx9AWuEtQCt722uUsXkS12dmp45A9EKMvoxcddGJAZalQM7skbFV6CR6iU9d7IsRUrmdirpWogGaG6D9bJ3mYccf79pa4/+8z9IgvmqBp+xXmt2iRY8zKHSP+dvMrfbl+n0m84X+S1F1zuC55Slf1rkcPPUKeJVoYttazBn3fGnJWf9T73ANezTjfexjHUmHjb7ysD61DJo072INHXvX+SyPTrnUvSnrM9Ugx4bFjcBPwNO15k273dHVSkY34hcs1Zrp3m7DPTnQNk1yPcPftov3vOvflR1YVW0Xsp85Ec6Cllauhl2mQ7kYNO8uBidF11usiUv7UPrsul8pcozJtUQm/6je/v0mWivV1zHX/v3Vdqm6z3QjhKho526Tz8FhbgjbYW2XwHx0K6Q5Mv8+xcQ0E4WA0eVC6E0XWFWtgvP+2Ok/4+cZe262dqxXjHPYnlTP5GaIa7/mJHIjuNUptgDX+cZaqwAONfNnr8v87ZYMd7f0EEECD6sDgj6OJ0hGhvkWYbYcKhQntrhPagIkHd1sxPmG4hAV5FJTOMc8aJYYTFPHg/OxK55XeV7bK/kjz17AMi0yb454jY5F2McF8aDRphqWz3hQQY4wopgRgsmD/bpfll1MicHTgkACVNmnatdsFeczn2XF8EX7URqtz+KBAnStdudiW7fSEB3mx7z7B5M31a1OAauMLi5SzWctrE4MJDN/lcGQM3wn+9aK47ov0H5KypkADjAzbC4WDUZ4AfZEDKmhVoFy5+xpixaQzeI3yfDfrbm2W3LyTA6/bzDDOnA2f6bOXPPz/Lp9NO4Z+2bhFjyPizjcL3Waevnc1uX0iAu/fyDMMLZWQeLY7NorVrae/D/MNyGawwYhAjayokwNVuR2MiwXNGS9+wVHP2Yf5m8FGS9ZVJh+/JcRZUSICzYFSjZZpnjfvNom702WbcV0iAGSwwCkd43n3bzjqXoT9KPxWqX0JtjUKpDc/b9VbvCwnwO4s9m+iLGtEnNgotbTuX5n69TX1uZnBxJnyfUI37u1ubKiTAYYzyeoEF+/Icz7y2gLsVAxH+bDopCwogN7RJaHCFFnV4Pp2Sk+dSSIDNmcDn9vuM/+iFz6rPeYV0M9qz+RB/Lc3UoOE+N7pj5p/mbOjcWDTP35dVqpAAh31cG1EyBuIuNNp1jKXS2+N+ZLTI6DEd6DCiUlnTwDSYBYEL1e5p9b6QAON7JnoDQl0SgWH04I0iDB9CgL/V7i6d1i8DDD16u9wIlw3HoJFss6Kfe9iPIadV9srkU0iAAZB4ZaMdDrKUGzZ8+FZ/PPJ76mkKPF/+SvIUlWWXw/1zU3Sg/2P1rO09sdJGT/zPUtnuCwkwLAuH5rYd5uOyuDZFY5gJdodwQhD9GFq37kqyX9r6USd5CZ07Q/91ZbLPg3cw1yR2wOyp/lqWqcICvPAZF58M83D27/s1z0b6n8Qv27QSGH+CHoeq3N/96SkG9see46M0qDw3/9Y/xwQ35kAZ0Y3jXB6osADDPGYbmIocsIsGxwVDd/OfdBEYFg5Lu8mcohFfdXHMjTCfvu7oM0QO/K6bP8wzSGd15CbgMs/YaIP+Gpx3QWXcll1r9b5rqwtMWt4mg/2kNIb/wiUZiLGaqe3tjiva4P2/LbJQz732oitlzjQN1znPxU0ToI6kDz1UZIeRIk/f5yIiyQOJRNrxQjFwgKTT3tKXNqOJHF99QfM7vzJChOkyBBlUEyAfd5GrDPY+1fe04jj3AMNkW8yMBVVCgGEQwW6baX8XQwqAiHi88jQfg0VAwF9PFjngRJH+OzqWMlOQkJ8w7Kces9EStPmTL9eK8J6/kz4vkZtGGFbEWh+ohh0D/mtv6MJsqRRh1Ind34p9oVU0DGJmwT9/6TxKHMNUZjGwN2L8dsI4F3zX3lwlu696j7VON4gpKbf/oRJcKtWYs/2MCrxWt16ihpf2iwHU/OWE0Y5VLbLF0OrcW3OcewluhA1MFpuk6vCIs5zksPjo8Qo68cz0R40IUmfDnWiTz3B10j5jFFFZiJ+2yWeo+NDvbfnQJIz4im+X6Q9PONdXgHkzXHD8mJ+6vAkKYPYDgfnMa2ollQJgGAZTJ13o5ykB2lHjRHB8EJhuc4i412YvKNaJqKcaUvt9w01RsQdpv8drNyychcg12nYC7Y8c59p12v+R33fhvNOus6ebvy8NwLCK9u86bYMPPdUxkkVWhh7mpp5Mn6jtqBpkIdCNspcYaxwcQw70KtmepZ/dW71p1QBznVGmq9QeGKPvRLwYNOwEZ13feakeLG871dTJ48qCchFtLEYVIbNG+IiZpPYtNZKYAYjly+yHekQbTnw1avbrf3YVBVULYXRZRSGKBADD8Fl3l/sl0vJqVc9h9OdOB7uZjjbzIrw/7XSpJNiYw+zC67VN3EYt5eFf8n1UrGxmCbJBRF7aIix0k5hu0rYIS1+3bIO7q/KXZZWYJoMBhsXOYi1Y5cxPRipn3Fx5P0dUhuvV0DpIK5dNZMOCZyWCiWoQmkH2ySc7fqaUABtbZt+tM/3UUAJQ+qo20mPXUb02xcXOtbcn9AZj7YFJlYH0qF9AxiFCc0D7jLbAAVNNHy1zjhem0NBsQITcYvFTGTs6tcbl+MnfUgPM58LYWf92G5O/cWDQxSHE1lbO+SRb3AxE+q74nPErt9fGEtHJ0g1Y7+YG3X2sqzRYzOZlC/NH+gET7xdOFN6JdT7wjoWBDOEzHUmXHuCQOQQEsE29ykkc7kU24rroJjFLkMlqdHvCcNwwj+o0w5bXnu1UNF0viLYbVc8aIeYPd1fc7/QbHMg4RLCuGfJEktEIS14O7+x4unRGVqMsQbpgJu5P3JZt62epOmf9rEbBtbIA8R8qhbNutzOuK8XiLLhI26PHJjuHiBlrLNZGNyptKjXA+LH53wY20s0kKsxtl7hlm6wc1PYxCnytoUoWeMFBYgEKTFqvtYaI5Zl0X2qAzY+NL7stCC8pd1bifgysO/7o2188ZcdepIbYZu1nhsYIo0KsLW//7uRnSw1wLXYg0adMdBvptGnGLeofp/3VNh2iK8XwYRgg6K6437fU6DJKe2WATgmwMXNl9o2qfaQSy9imstAWHzVOrfjPVpbKBPIBQ/25MMban135VAQ4Ie+SqH2GNvFi2YRxLHXcqHSR6JMj0XjKLNSHyoBPPU3qVN2kNBnXaF6L5q4YdFCHCGPWdIt2G+O26jymXpm+VytKcDWXm3BMv3r86bUnpOMpY9FURr7SpijBaXO0Rn44UHCIEH1J7BiLjhMdwkp7M9UoW9klnmoU9/HpCPDHrGh+gr4yyz+ES0A0u9SmAdzW70zQBWmkn1qUPJsNWpL8mwpwI6AleVnyK0KeSb6p2femamQtfimd1w3zCdMdyT3MJ0ynlWdH8mnms6lKsLUtHflbHJhv+fDhls57ns0EqSN5d7l4dB5WkujIJ8Rn63EgVRVdr6B4LRsORICz4XvLSo0At4zV2RQUAc6G7y0rNQLcMlZnU1AEOBu+t6zUCHDLWJ1NQRHgbPjeslIjwC1jdTYFRYCz4XvLSo0At4zV2RQUAc6G7y0rNQLcMlZnU1AEOBu+t6zUCHDLWJ1NQRHgbPjeslIjwC1jdTYFRYCz4XssNXIgHQ78H39BFAhE8kaDAAAAAElFTkSuQmCC;" parent="1" vertex="1">
          <mxGeometry x="691" y="426" width="51.14" height="52" as="geometry" />
        </mxCell>
        <mxCell id="PcIXvhPExtJtn8P3PVHD-33" value="Amazon Bedrock" style="sketch=0;points=[[0,0,0],[0.25,0,0],[0.5,0,0],[0.75,0,0],[1,0,0],[0,1,0],[0.25,1,0],[0.5,1,0],[0.75,1,0],[1,1,0],[0,0.25,0],[0,0.5,0],[0,0.75,0],[1,0.25,0],[1,0.5,0],[1,0.75,0]];outlineConnect=0;fontColor=#232F3E;gradientColor=#4AB29A;gradientDirection=north;fillColor=#116D5B;strokeColor=#ffffff;dashed=0;verticalLabelPosition=bottom;verticalAlign=top;align=center;html=1;fontSize=12;fontStyle=0;aspect=fixed;shape=mxgraph.aws4.resourceIcon;resIcon=mxgraph.aws4.sagemaker;" parent="1" vertex="1">
          <mxGeometry x="296" y="421" width="48" height="48" as="geometry" />
        </mxCell>
        <mxCell id="PcIXvhPExtJtn8P3PVHD-32" value="Amazon SageMaker&lt;br&gt;LLM" style="sketch=0;points=[[0,0,0],[0.25,0,0],[0.5,0,0],[0.75,0,0],[1,0,0],[0,1,0],[0.25,1,0],[0.5,1,0],[0.75,1,0],[1,1,0],[0,0.25,0],[0,0.5,0],[0,0.75,0],[1,0.25,0],[1,0.5,0],[1,0.75,0]];outlineConnect=0;fontColor=#232F3E;gradientColor=#4AB29A;gradientDirection=north;fillColor=#116D5B;strokeColor=#ffffff;dashed=0;verticalLabelPosition=bottom;verticalAlign=top;align=center;html=1;fontSize=12;fontStyle=0;aspect=fixed;shape=mxgraph.aws4.resourceIcon;resIcon=mxgraph.aws4.sagemaker;" parent="1" vertex="1">
          <mxGeometry x="404.19" y="420" width="48" height="48" as="geometry" />
        </mxCell>
        <mxCell id="PcIXvhPExtJtn8P3PVHD-42" style="edgeStyle=orthogonalEdgeStyle;rounded=0;orthogonalLoop=1;jettySize=auto;html=1;entryX=1;entryY=0.5;entryDx=0;entryDy=0;entryPerimeter=0;" parent="1" source="PcIXvhPExtJtn8P3PVHD-38" target="PcIXvhPExtJtn8P3PVHD-17" edge="1">
          <mxGeometry relative="1" as="geometry" />
        </mxCell>
        <mxCell id="PcIXvhPExtJtn8P3PVHD-38" value="Connectors" style="rounded=1;whiteSpace=wrap;html=1;" parent="1" vertex="1">
          <mxGeometry x="775" y="326" width="70" height="30" as="geometry" />
        </mxCell>
        <mxCell id="PcIXvhPExtJtn8P3PVHD-45" style="edgeStyle=orthogonalEdgeStyle;rounded=0;orthogonalLoop=1;jettySize=auto;html=1;entryX=1;entryY=0.5;entryDx=0;entryDy=0;" parent="1" source="PcIXvhPExtJtn8P3PVHD-43" target="PcIXvhPExtJtn8P3PVHD-25" edge="1">
          <mxGeometry relative="1" as="geometry" />
        </mxCell>
        <mxCell id="PcIXvhPExtJtn8P3PVHD-43" value="Crawler" style="rounded=1;whiteSpace=wrap;html=1;" parent="1" vertex="1">
          <mxGeometry x="774" y="437" width="70" height="30" as="geometry" />
        </mxCell>
        <mxCell id="PcIXvhPExtJtn8P3PVHD-52" value="DynamoDB&lt;br&gt;(ChatHistory)" style="sketch=0;points=[[0,0,0],[0.25,0,0],[0.5,0,0],[0.75,0,0],[1,0,0],[0,1,0],[0.25,1,0],[0.5,1,0],[0.75,1,0],[1,1,0],[0,0.25,0],[0,0.5,0],[0,0.75,0],[1,0.25,0],[1,0.5,0],[1,0.75,0]];outlineConnect=0;fontColor=#232F3E;gradientColor=#4D72F3;gradientDirection=north;fillColor=#3334B9;strokeColor=#ffffff;dashed=0;verticalLabelPosition=bottom;verticalAlign=top;align=center;html=1;fontSize=12;fontStyle=0;aspect=fixed;shape=mxgraph.aws4.resourceIcon;resIcon=mxgraph.aws4.dynamodb;" parent="1" vertex="1">
          <mxGeometry x="529.76" y="278" width="44" height="44" as="geometry" />
        </mxCell>
        <mxCell id="PcIXvhPExtJtn8P3PVHD-65" value="" style="sketch=0;points=[[0,0,0],[0.25,0,0],[0.5,0,0],[0.75,0,0],[1,0,0],[0,1,0],[0.25,1,0],[0.5,1,0],[0.75,1,0],[1,1,0],[0,0.25,0],[0,0.5,0],[0,0.75,0],[1,0.25,0],[1,0.5,0],[1,0.75,0]];outlineConnect=0;fontColor=#232F3E;gradientColor=#F78E04;gradientDirection=north;fillColor=#D05C17;strokeColor=#ffffff;dashed=0;verticalLabelPosition=bottom;verticalAlign=top;align=center;html=1;fontSize=12;fontStyle=0;aspect=fixed;shape=mxgraph.aws4.resourceIcon;resIcon=mxgraph.aws4.fargate;" parent="1" vertex="1">
          <mxGeometry x="274" y="50" width="44" height="44" as="geometry" />
        </mxCell>
        <mxCell id="PcIXvhPExtJtn8P3PVHD-10" value="Langchain" style="rounded=1;whiteSpace=wrap;html=1;" parent="1" vertex="1">
          <mxGeometry x="328" y="200" width="84" height="30" as="geometry" />
        </mxCell>
        <mxCell id="PcIXvhPExtJtn8P3PVHD-31" value="Agents&lt;br&gt;(ReAct)" style="rounded=1;whiteSpace=wrap;html=1;" parent="1" vertex="1">
          <mxGeometry x="429" y="200" width="94.76" height="30" as="geometry" />
        </mxCell>
        <mxCell id="PcIXvhPExtJtn8P3PVHD-5" value="streamlit&lt;br&gt;(frontend)" style="rounded=1;whiteSpace=wrap;html=1;" parent="1" vertex="1">
          <mxGeometry x="471.76" y="100" width="70" height="30" as="geometry" />
        </mxCell>
        <mxCell id="WZLPfKOkmw0nQWj1aQov-17" value="Embeddings &lt;br&gt;endpoint" style="sketch=0;outlineConnect=0;fontColor=#232F3E;gradientColor=none;fillColor=#067F68;strokeColor=none;dashed=0;verticalLabelPosition=bottom;verticalAlign=top;align=center;html=1;fontSize=12;fontStyle=0;aspect=fixed;pointerEvents=1;shape=mxgraph.aws4.sagemaker_model;" parent="1" vertex="1">
          <mxGeometry x="520" y="420" width="40" height="40" as="geometry" />
        </mxCell>
        <mxCell id="WZLPfKOkmw0nQWj1aQov-22" value="or" style="text;html=1;strokeColor=none;fillColor=none;align=center;verticalAlign=middle;whiteSpace=wrap;rounded=0;" parent="1" vertex="1">
          <mxGeometry x="344.19" y="429" width="60" height="30" as="geometry" />
        </mxCell>
      </root>
    </mxGraphModel>
  </diagram>
</mxfile>
